# xmcd
#
# Track frame offsets: 
#        150
#        16133
#        29254
#        42536
#        61145
#        75477
#        88860
#        102036
#        116777
#        133530
#
# Disc length: 1959 seconds
#
# Revision: 0
# Processed by: cddbd v1.5.2PL0 Copyright (c) Steve Scherf et al.
# Submitted via: ExactAudioCopy v0.99pb5
#
DISCID=7707a50a
DTITLE=Nat King Cole - Greatest Love Songs
DYEAR=1900
DGENRE=Blues
TTITLE0=Stardust
TTITLE1=Autumn Leaves
TTITLE2=Walkin' My Baby Back Home
TTITLE3=These Foolish Things
TTITLE4=These Goes My Heart
TTITLE5=Love Letters
TTITLE6=Love Is A Many Spendored Thing
TTITLE7=Stay As Sweet As You Are
TTITLE8=The More I See You
TTITLE9=The Party's Over
EXTD=
EXTT0=
EXTT1=
EXTT2=
EXTT3=
EXTT4=
EXTT5=
EXTT6=
EXTT7=
EXTT8=
EXTT9=
PLAYORDER=
